<?xml version="1.0" encoding="UTF-8"?>
<svg id="Capa_2" data-name="Capa 2" xmlns="http://www.w3.org/2000/svg" viewBox="0 0 189.06 216.47">
  <defs>
    <style>
      .cls-1 {
        fill: #23215c;
      }
    </style>
  </defs>
  <g id="Capa_1-2" data-name="Capa 1">
    <path class="cls-1" d="M105.65,111.78c-.19.31-.03,1.02.09,1.39.54,1.55,2.36,4.17,3.19,5.92,9.54,20.2,18.29,59.87,38.48,71.35,6.3,3.58,16.53,4.76,21.5-1.61,3.34-4.29,3.1-13.93,11.05-12.71,6.7,1.03,5.68,8.95,2.58,13.16-11.17,15.19-35.72,11.54-49.33,1.69-24.29-17.58-32.32-50.66-41.02-77.68-.76-2.03-4.59-2.55-5.77-.95-4.96,16.7-9.24,33.73-13.69,50.6,0,1.16.34,1.44,1.4,1.73,2.97.81,10.84.35,14.02-.23,1.5-.27,3.17-1.72,3.32,1.13.1,1.98-.69,3.16-2.6,3.66-8.65,2.26-17.85.16-26.54-.18-5.62-.22-12.17-.18-17.72.52-2.08.26-4.57,1.04-6.52,1.16-.4.03-1.21.12-1.45-.22-.43-2.34.63-5.13,3.01-5.89,5.03-1.61,9.98-1.88,14.16-5.75,6.75-6.25,10.09-25.8,12.54-34.95,2.51-9.38,5.19-18.73,7.59-28.14,1.3-5.09,3.82-12.8,4.31-17.76.21-2.12.16-4-2.17-4.72-2.77-.85-4.53.67-3.45-3.53.24-.93.67-1.74,1.71-1.89,3.49-.53,7.35-.5,10.98-1.01,3.82-.54,8.23-1.98,11.82-2.33,1.6-.16,1.7.19,1.47,1.72l-10.2,37.06c-.17,1.52.33,1.56,1.58,1.9,6.17,1.68,14.58.36,20.35-2.28,22.54-10.35,25.95-42.07-2.28-46.97-24.54-4.26-60.33,11.18-69.29,35.6-3.48,9.5-4.22,19.6,3.17,27.4,2.41,2.54,8.13,5.92,8.5,9.5.28,2.66-2.07,5.64-4.72,6.03-10.62,1.54-16.56-14.79-17.08-23.08-2.62-41.48,42.29-64.6,78.54-62.96,15.13.68,37.95,5.59,39.65,24.14s-16.85,32.84-33.2,37.24c-1.12.3-7.71,1.55-7.97,1.98Z"/>
    <path class="cls-1" d="M105.13,210.66c-2.7,1.67-5.54,3.89-8.32,5.35-.4.21-.79.58-1.28.43L1.34,163.49c-.15-6.5.03-13.01-.04-19.51-.29-27.62-.67-55.33-1.22-82.95-.03-1.55-.17-3.85,0-5.3.04-.35.02-.63.4-.8L93.26,0l94.49,52.98,1.32,108.04-9.47,5.86-6.12-3.47,9.13-5.99c-.07-2,.03-4.01,0-6.01-.6-27.63-.71-55.32-1.22-82.95-.07-3.87.17-7.8-.11-11.64L93.3,7.48,6.62,58.79l.18,26.22c.43,20.91.62,41.89.98,62.81.07,3.96-.17,7.93.11,11.88l87.65,49.3,9.59-5.65v7.31Z"/>
  </g>
</svg>